# xmcd
#
# Track frame offsets:
#	150
#	11929
#	32677
#	43351
#	62373
#	70386
#	99889
#	111767
#	121429
#	138987
#
# Disc length: 1884 seconds
#
# Revision: 0
# Processed by: cddbd v1.5.1PL0 Copyright (c) Steve Scherf et al.
# Submitted via: dBpowerAMP V4.0
#
DISCID=89075a0a
DTITLE=H.P. Lovecraft - H.P. Lovecraft
DYEAR=1900
DGENRE=
TTITLE0=Wayfaring Stranger
TTITLE1=Let's Get Together
TTITLE2=I 've Been Wrong Before
TTITLE3=The Drifter
TTITLE4=That's The Bag I 'm In
TTITLE5=The White Ship
TTITLE6=Country Boy And Bleeker Street
TTITLE7=The Time Machine
TTITLE8=That's How Much I Love You Baby (More Or Less)
TTITLE9=Gloria Patria
EXTD=
EXTT0=
EXTT1=
EXTT2=
EXTT3=
EXTT4=
EXTT5=
EXTT6=
EXTT7=
EXTT8=
EXTT9=
PLAYORDER=
